<?xml version="1.0" standalone="no"?>
<!DOCTYPE svg PUBLIC "-//W3C//DTD SVG 20010904//EN"
 "http://www.w3.org/TR/2001/REC-SVG-20010904/DTD/svg10.dtd">
<svg version="1.0" xmlns="http://www.w3.org/2000/svg"
 width="35.000000pt" height="35.000000pt" viewBox="0 0 35.000000 35.000000"
 preserveAspectRatio="xMidYMid meet">

<g transform="translate(0.000000,35.000000) scale(0.100000,-0.100000)"
fill="#000000" stroke="none">
<path d="M112 330 c-18 -11 -40 -36 -49 -55 -15 -31 -15 -42 -4 -82 12 -49 98
-187 116 -188 17 0 104 138 117 187 10 41 10 52 -5 83 -20 41 -70 75 -112 75
-16 0 -45 -9 -63 -20z m102 -4 c90 -38 88 -126 -7 -265 l-30 -44 -24 29 c-12
16 -36 54 -53 85 -49 93 -37 164 34 195 39 17 40 17 80 0z"/>
<path d="M137 262 c-22 -24 -21 -45 1 -65 24 -22 55 -21 75 1 22 24 21 45 -1
65 -24 22 -55 21 -75 -1z m61 -4 c17 -17 15 -43 -4 -59 -31 -26 -70 25 -44 56
15 18 32 19 48 3z"/>
</g>
</svg>
